<svg xmlns="http://www.w3.org/2000/svg" width="126" height="32" viewBox="0 0 126 32" fill="none">
<path d="M71.8436 18.9726H71.6563L62.2972 7.80664H59.1719V20.987H59.7374V8.37214H60.3029L70.9 20.987H72.4091V7.80664H71.8436V18.9726Z" fill="#333333"/>
<path d="M82.8521 7.5625C79.0877 7.5625 74.8516 9.84121 74.8516 14.4154C74.8516 18.9895 79.0877 21.2314 82.8521 21.2314C86.6165 21.2314 90.8728 18.936 90.8728 14.4154C90.8728 9.89474 86.6165 7.5625 82.8521 7.5625ZM82.8722 20.7228C78.974 20.7429 76.809 17.7113 76.809 14.3016C76.8291 10.9689 78.9171 8.05103 82.8521 8.01423C86.7504 7.97742 88.9153 11.0625 88.932 14.4722C88.8952 17.805 86.8039 20.7027 82.8689 20.7228H82.8722Z" fill="#333333"/>
<path d="M104.031 7.80689H103.376L98.7612 17.7482H98.44L93.809 7.79016H91.7578L97.9147 20.9672L104.031 7.80689Z" fill="#333333"/>
<path d="M108.173 7.80688H106.289V20.9873H108.173V7.80688Z" fill="#333333"/>
<path d="M120.089 11.5744L122.254 7.80664H121.517L119.316 11.5744H113.818V7.80664H111.938V20.987H113.818V12.1365H118.262L123.365 20.987H125.546L120.089 11.5744Z" fill="#333333"/>
<path d="M60.0897 26.6421C60.0897 25.8089 62.422 25.3036 63.5028 26.6053L63.7303 26.2205C62.3918 25.2367 59.3335 25.5077 59.3335 26.6454C59.3335 28.2516 63.4726 26.7358 63.4827 29.2253C63.4894 30.9285 60.9463 31.5475 59.213 30.0886L58.9922 30.4667C60.6786 31.4973 64.2356 31.4371 64.2222 29.232C64.2054 26.6053 60.0897 27.9973 60.0897 26.6421Z" fill="#333333"/>
<path d="M71.5512 27.2478H67.2381V25.7354H66.4785V31.0323H67.2381V27.4753H71.5512V31.0323H72.3075V25.7354H71.5512V27.2478Z" fill="#333333"/>
<path d="M75.6351 25.7354H74.8789V31.0323H75.6351V25.7354Z" fill="#333333"/>
<path d="M81.8462 25.7354H78.1387V31.0323H78.8949V27.4753H81.8462C82.5121 27.4753 83.0575 27.308 83.0575 26.6422C83.0575 25.9763 82.5121 25.7354 81.8462 25.7354ZM81.6956 27.2478H78.8949V25.9595H81.6956C82.1875 25.9595 82.2243 26.1503 82.2243 26.6422C82.2243 27.134 82.1875 27.2478 81.6956 27.2478Z" fill="#333333"/>
<path d="M88.7329 25.7354H85.0254V31.0323H85.7816V27.4753H88.7329C89.3988 27.4753 89.9442 27.308 89.9442 26.6422C89.9442 25.9763 89.3988 25.7354 88.7329 25.7354ZM88.5823 27.2478H85.7816V25.9595H88.5823C89.0742 25.9595 89.111 26.1503 89.111 26.6422C89.111 27.134 89.0742 27.2478 88.5823 27.2478Z" fill="#333333"/>
<path d="M92.6664 25.7354H91.9102V31.0323H92.6664V25.7354Z" fill="#333333"/>
<path d="M100.413 30.2225H100.336L96.5745 25.7354H95.3164V31.0323H95.5439V25.9629H95.7715L100.034 31.0323H100.64V25.7354H100.413V30.2225Z" fill="#333333"/>
<path d="M106.13 25.8194C106.926 25.8127 107.538 26.1205 107.953 26.6124L108.174 26.2276C107.575 25.8327 106.836 25.6387 106.13 25.6387C104.617 25.6387 102.914 26.5555 102.914 28.3925C102.914 30.2295 104.617 31.133 106.13 31.133C106.832 31.133 107.575 30.9356 108.174 30.5441V27.2515H107.023L106.896 27.479H107.418V30.6043C107.07 30.8084 106.638 30.9289 106.14 30.9289C104.574 30.9356 103.704 29.7176 103.704 28.349C103.71 27.0106 104.55 25.8361 106.133 25.8227L106.13 25.8194Z" fill="#333333"/>
<path d="M0.143897 31.9973C3.52013 30.9232 12.4944 28.2161 22.7369 29.4743C29.9846 30.3643 39.3872 28.4872 43.9413 27.7376C44.0517 27.7209 44.0283 27.557 43.9179 27.567C41.2108 27.818 36.7806 28.1894 33.3173 28.1224C39.6147 17.6826 53.7387 13.704 53.7387 13.704C53.7387 13.704 48.4552 9.70206 37.4665 9.58829L37.3795 9.41764C37.3494 9.35406 37.3059 9.2771 37.2591 9.18675V9.18006H37.2557C36.9947 8.68484 36.5162 7.82154 36.0009 7.13224C34.6826 5.35545 33.836 4.64941 33.836 4.64941C33.836 4.64941 26.6318 5.1346 20.7593 8.5878C13.4247 12.9009 11.0288 15.8087 8.90739 18.8972L8.53597 19.4225C3.93171 23.0531 1.44219 26.3189 1.44219 26.3189L1.79019 27.2859C1.79019 27.2859 9.05796 17.9335 22.5796 12.9879C32.7385 9.27375 42.6363 10.8397 46.8658 12.5697C34.2978 20.4498 32.0927 27.1052 31.8317 28.0589C29.8474 27.925 28.4186 27.5837 28.2346 26.8844C27.6089 24.4752 31.0085 22.8456 30.0984 22.8456C29.5329 22.8456 27.3278 23.3342 24.9152 25.0708C22.5361 26.784 19.4276 28.186 18.8387 27.8079C18.2464 27.4298 19.0997 26.7807 21.0505 25.4824C21.1442 25.4221 21.0906 25.2782 20.9802 25.2916C19.0762 25.4991 16.4629 27.7577 15.6866 27.7109C15.0776 27.6741 15.0408 27.1387 15.0642 26.8576C15.0709 26.7907 15.0007 26.7472 14.9438 26.7807C14.4954 27.0617 13.0633 27.8681 11.4371 27.8681C9.81084 27.8681 9.60338 27.1153 9.56323 26.8108C9.55653 26.7505 9.48961 26.7204 9.43607 26.7505L0.060244 31.7898C-0.0602163 31.8534 0.0167445 32.0374 0.143897 31.9939V31.9973Z" fill="#333333"/>
<path d="M17.4561 9.58089C24.1618 4.62529 32.6609 3.63149 32.6609 3.63149C32.6609 3.63149 31.9013 2.96896 30.5261 2.19935C29.0705 1.38624 28.1336 1.06836 28.1336 1.06836C28.1336 1.06836 21.4514 3.20318 15.144 9.29312C9.77678 14.4763 8.87333 16.6512 8.43164 17.2602L8.49522 18.0901C9.34178 16.9892 10.6702 14.5934 17.4528 9.57754L17.4561 9.58089Z" fill="#333333"/>
<path d="M16.9251 6.19501C20.3014 3.17681 26.4783 0.556802 26.4783 0.556802C26.4783 0.556802 25.257 0.232229 23.9352 0.0950377C22.5968 -0.0454994 21.6164 0.0113847 21.6164 0.0113847C21.6164 0.0113847 14.5059 4.3078 9.26251 13.2419C9.21901 13.8208 9.18555 14.7142 9.18555 14.7142C9.18555 14.7142 11.9996 10.6052 16.9285 6.19501H16.9251Z" fill="#333333"/>
</svg>