<svg width="26" height="20" viewBox="0 0 26 20" fill="none" xmlns="http://www.w3.org/2000/svg">
<path d="M18.4598 11.8169L14.2725 16.0056C13.8917 16.3862 13.6778 16.9024 13.6777 17.4406C13.6775 17.9789 13.8912 18.4952 14.2718 18.8759C14.6523 19.2566 15.1685 19.4706 15.7068 19.4707C16.2451 19.4708 16.7613 19.2571 17.142 18.8766L24.7956 11.223C24.9842 11.0345 25.1338 10.8108 25.2359 10.5645C25.338 10.3181 25.3905 10.0541 25.3905 9.78753C25.3905 9.52091 25.338 9.25691 25.2359 9.01061C25.1338 8.7643 24.9842 8.54052 24.7956 8.35206L17.1434 0.698468C16.9549 0.509961 16.7311 0.360429 16.4848 0.258409C16.2385 0.156389 15.9745 0.103879 15.7079 0.103879C15.4413 0.103879 15.1774 0.156389 14.9311 0.258409C14.6848 0.360429 14.461 0.509961 14.2725 0.698469C14.0839 0.886978 13.9344 1.11077 13.8324 1.35707C13.7304 1.60337 13.6779 1.86735 13.6779 2.13394C13.6779 2.40053 13.7304 2.66451 13.8324 2.91081C13.9344 3.15711 14.0839 3.3809 14.2725 3.56941L18.4598 7.75812L2.85363 7.75812C2.3154 7.75812 1.79921 7.97193 1.41862 8.35252C1.03803 8.73311 0.824218 9.2493 0.824218 9.78753C0.824218 10.3258 1.03803 10.842 1.41862 11.2225C1.79921 11.6031 2.3154 11.8169 2.85363 11.8169L18.4598 11.8169Z" fill="white"/>
</svg>
