<svg width="26" height="20" viewBox="0 0 26 20" fill="none" xmlns="http://www.w3.org/2000/svg">
<path d="M7.54019 8.18306L11.7275 3.99435C12.1083 3.61382 12.3222 3.09764 12.3223 2.55936C12.3225 2.02108 12.1088 1.5048 11.7282 1.12409C11.3477 0.743375 10.8315 0.529423 10.2932 0.529296C9.75495 0.529169 9.23867 0.742878 8.85796 1.12341L1.20437 8.777C1.01578 8.96546 0.866178 9.18924 0.76411 9.43554C0.662042 9.68185 0.609506 9.94585 0.609506 10.2125C0.609506 10.4791 0.662042 10.7431 0.76411 10.9894C0.866178 11.2357 1.01578 11.4595 1.20437 11.6479L8.8566 19.3015C9.04511 19.49 9.2689 19.6396 9.5152 19.7416C9.7615 19.8436 10.0255 19.8961 10.2921 19.8961C10.5587 19.8961 10.8226 19.8436 11.0689 19.7416C11.3152 19.6396 11.539 19.49 11.7275 19.3015C11.9161 19.113 12.0656 18.8892 12.1676 18.6429C12.2696 18.3966 12.3221 18.1326 12.3221 17.8661C12.3221 17.5995 12.2696 17.3355 12.1676 17.0892C12.0656 16.8429 11.9161 16.6191 11.7275 16.4306L7.54019 12.2419L23.1464 12.2419C23.6846 12.2419 24.2008 12.0281 24.5814 11.6475C24.962 11.2669 25.1758 10.7507 25.1758 10.2125C25.1758 9.67424 24.962 9.15805 24.5814 8.77746C24.2008 8.39687 23.6846 8.18306 23.1464 8.18306L7.54019 8.18306Z" fill="white"/>
</svg>
