<svg xmlns="http://www.w3.org/2000/svg" width="111" height="97" viewBox="0 0 111 97" fill="none">
<circle cx="92.5" cy="78.0195" r="16.5" fill="#1E54BC" stroke="white" stroke-width="4"/>
<path d="M86.9238 84.9316V82.5361L92.4668 77.4551C93.849 76.1803 94.54 75.0488 94.54 74.0605C94.54 73.5091 94.3359 73.0579 93.9277 72.707C93.5267 72.349 92.9967 72.1699 92.3379 72.1699C91.1419 72.1699 90.057 72.8538 89.083 74.2217L86.9453 72.2988C87.6901 71.2461 88.5065 70.4798 89.3945 70C90.2826 69.513 91.3066 69.2695 92.4668 69.2695C94.0208 69.2695 95.2777 69.6956 96.2373 70.5479C97.1969 71.3929 97.6768 72.5065 97.6768 73.8887C97.6768 74.9414 97.4225 75.9082 96.9141 76.7891C96.4128 77.6699 95.582 78.6081 94.4219 79.6035L91.543 82.1172L94.2715 82.0742H98.0957V84.9316H86.9238Z" fill="white"/>
<g clip-path="url(#clip0_199_208)">
<path fill-rule="evenodd" clip-rule="evenodd" d="M48.1179 7.0835C49.9963 7.0839 51.7977 7.83044 53.1258 9.15891L68.7587 24.7918C70.0872 26.1199 70.8337 27.9213 70.8341 29.7997V70.8335C70.8341 72.7121 70.0878 74.5138 68.7595 75.8422C67.4311 77.1706 65.6294 77.9168 63.7508 77.9168H46.0424C45.1031 77.9168 44.2023 77.5437 43.5381 76.8795C42.8739 76.2153 42.5008 75.3145 42.5008 74.3752C42.5008 73.4359 42.8739 72.535 43.5381 71.8708C44.2023 71.2066 45.1031 70.8335 46.0424 70.8335H63.7508V35.4168H47.8133C46.4043 35.4168 45.0531 34.8571 44.0568 33.8608C43.0605 32.8645 42.5008 31.5133 42.5008 30.1043V14.1668H21.2508V28.3335C21.2508 29.2728 20.8776 30.1736 20.2135 30.8378C19.5493 31.502 18.6484 31.8752 17.7091 31.8752C16.7698 31.8752 15.869 31.502 15.2048 30.8378C14.5406 30.1736 14.1675 29.2728 14.1675 28.3335V14.1668C14.1675 12.2882 14.9137 10.4865 16.2421 9.15816C17.5705 7.82977 19.3722 7.0835 21.2508 7.0835H48.1179ZM24.7925 35.4168C27.519 35.4167 30.1876 36.2033 32.4781 37.6823C34.7686 39.1614 36.5836 41.2699 37.7053 43.755C38.8271 46.24 39.2079 48.996 38.8021 51.6921C38.3963 54.3883 37.221 56.91 35.4175 58.9547V73.8014C35.4176 74.4656 35.2479 75.1187 34.9245 75.6988C34.6011 76.2789 34.1349 76.7667 33.5699 77.1159C33.005 77.4651 32.3602 77.664 31.6967 77.6939C31.0332 77.7237 30.3731 77.5835 29.7791 77.2864L24.7925 74.7931L19.8058 77.2864C19.2118 77.5835 18.5517 77.7237 17.8882 77.6939C17.2248 77.664 16.5799 77.4651 16.015 77.1159C15.4501 76.7667 14.9838 76.2789 14.6604 75.6988C14.337 75.1187 14.1674 74.4656 14.1675 73.8014V58.9547C12.3639 56.91 11.1886 54.3883 10.7828 51.6921C10.377 48.996 10.7578 46.24 11.8796 43.755C13.0013 41.2699 14.8163 39.1614 17.1068 37.6823C19.3973 36.2033 22.0659 35.4167 24.7925 35.4168ZM28.3341 63.3039C26.0109 63.9022 23.574 63.9022 21.2508 63.3039V68.6447L23.2093 67.6673C23.7009 67.4216 24.2429 67.2937 24.7925 67.2937C25.342 67.2937 25.884 67.4216 26.3756 67.6673L28.3341 68.6447V63.3039ZM24.7925 42.5002C22.9138 42.5002 21.1122 43.2464 19.7838 44.5748C18.4554 45.9032 17.7091 47.7049 17.7091 49.5835C17.7091 51.4621 18.4554 53.2638 19.7838 54.5922C21.1122 55.9206 22.9138 56.6668 24.7925 56.6668C26.6711 56.6668 28.4727 55.9206 29.8011 54.5922C31.1295 53.2638 31.8758 51.4621 31.8758 49.5835C31.8758 47.7049 31.1295 45.9032 29.8011 44.5748C28.4727 43.2464 26.6711 42.5002 24.7925 42.5002ZM49.5841 15.6331V28.3335H62.2845L49.5841 15.6331Z" fill="#1E54BC"/>
</g>
<defs>
<clipPath id="clip0_199_208">
<rect width="85" height="85" fill="white"/>
</clipPath>
</defs>
</svg>