<svg xmlns="http://www.w3.org/2000/svg" width="113" height="96" viewBox="0 0 113 96" fill="none">
<circle cx="94.5" cy="78.0654" r="16.1336" fill="#1E54BC" stroke="white" stroke-width="3.26718"/>
<path d="M95.6045 85V82.2285H87.5693V79.6074L95.7334 69.5957H98.6123V79.457H100.438V82.2285H98.6123V85H95.6045ZM91.1357 79.5215H95.7119V77.1904L95.7549 73.8711L93.4883 76.6641L91.1357 79.5215Z" fill="white"/>
<path fill-rule="evenodd" clip-rule="evenodd" d="M29.492 67.0879C32.3625 67.0879 34.6894 64.7609 34.6894 61.8904C34.6894 59.0199 32.3625 56.6929 29.492 56.6929C26.6215 56.6929 24.2945 59.0199 24.2945 61.8904C24.2945 64.7609 26.6215 67.0879 29.492 67.0879ZM29.492 70.7808C34.402 70.7808 38.3824 66.8004 38.3824 61.8904C38.3824 56.9804 34.402 53 29.492 53C24.5819 53 20.6016 56.9804 20.6016 61.8904C20.6016 66.8004 24.5819 70.7808 29.492 70.7808Z" fill="#1E54BC"/>
<path fill-rule="evenodd" clip-rule="evenodd" d="M60.1306 67.0879C63.0011 67.0879 65.3281 64.7609 65.3281 61.8904C65.3281 59.0199 63.0011 56.6929 60.1306 56.6929C57.2602 56.6929 54.9332 59.0199 54.9332 61.8904C54.9332 64.7609 57.2602 67.0879 60.1306 67.0879ZM60.1306 70.7808C65.0407 70.7808 69.0211 66.8004 69.0211 61.8904C69.0211 56.9804 65.0407 53 60.1306 53C55.2206 53 51.2402 56.9804 51.2402 61.8904C51.2402 66.8004 55.2206 70.7808 60.1306 70.7808Z" fill="#1E54BC"/>
<path fill-rule="evenodd" clip-rule="evenodd" d="M16.3447 28.5861C23.1054 28.5861 28.5861 23.1054 28.5861 16.3447C28.5861 9.58393 23.1054 4.10327 16.3447 4.10327C9.58393 4.10327 4.10327 9.58393 4.10327 16.3447C4.10327 23.1054 9.58393 28.5861 16.3447 28.5861ZM16.3447 32.6894C25.3716 32.6894 32.6894 25.3716 32.6894 16.3447C32.6894 7.31776 25.3716 0 16.3447 0C7.31776 0 0 7.31776 0 16.3447C0 25.3716 7.31776 32.6894 16.3447 32.6894Z" fill="#1E54BC"/>
<path fill-rule="evenodd" clip-rule="evenodd" d="M18.3453 39.3823C29.4118 39.3823 38.383 30.4111 38.383 19.3446C38.383 18.6286 38.3454 17.9212 38.2722 17.2246H49.8721C52.8937 17.2246 55.3431 19.6741 55.3431 22.6956V23.9266H69.1502C71.1671 23.9266 73.0115 25.0642 73.9168 26.8664L79.6076 38.1954C79.7512 38.4812 79.826 38.7965 79.826 39.1163V55.5218C79.826 58.5433 77.3765 60.9928 74.3549 60.9928H15.2679C12.2463 60.9928 9.79688 58.5433 9.79688 55.5218L9.79687 38.1954C12.501 39 15.2875 39.3823 18.3453 39.3823ZM55.501 30.7654C55.501 29.2546 55.501 26.8664 55.501 25.0752H68.2526C73.001 25.0752 74.8496 28.6357 75.3037 29.5871L77.001 33.1433C77.8674 34.9588 77.4661 35.9923 78.001 37.0571H58.3522C56.8414 37.0571 55.6167 35.8324 55.6167 34.3216L55.501 30.7654Z" stroke="#1E54BC" stroke-width="6"/>
<path fill-rule="evenodd" clip-rule="evenodd" d="M16.1396 8.20605C17.386 8.20605 18.3964 9.21646 18.3964 10.4629V14.019H22.4997C23.7461 14.019 24.7565 15.0294 24.7565 16.2758C24.7565 17.5222 23.7461 18.5326 22.4997 18.5326H16.1396C14.8932 18.5326 13.8828 17.5222 13.8828 16.2758V10.4629C13.8828 9.21646 14.8932 8.20605 16.1396 8.20605Z" fill="#1E54BC"/>
<path d="M34.6899 61.8899C34.6899 64.7603 32.3629 67.0873 29.4924 67.0873C26.6219 67.0873 24.2949 64.7603 24.2949 61.8899C24.2949 59.0194 26.6219 56.6924 29.4924 56.6924C32.3629 56.6924 34.6899 59.0194 34.6899 61.8899Z" fill="#1E54BC"/>
<path d="M65.3285 61.8899C65.3285 64.7603 63.0016 67.0873 60.1311 67.0873C57.2606 67.0873 54.9336 64.7603 54.9336 61.8899C54.9336 59.0194 57.2606 56.6924 60.1311 56.6924C63.0016 56.6924 65.3285 59.0194 65.3285 61.8899Z" fill="#1E54BC"/>
</svg>