<svg xmlns="http://www.w3.org/2000/svg" width="111" height="104" viewBox="0 0 111 104" fill="none">
<circle cx="92.5" cy="85.0195" r="16.5" fill="#1E54BC" stroke="white" stroke-width="4"/>
<path d="M93.6045 91.9316V89.1602H85.5693V86.5391L93.7334 76.5273H96.6123V86.3887H98.4385V89.1602H96.6123V91.9316H93.6045ZM89.1357 86.4531H93.7119V84.1221L93.7549 80.8027L91.4883 83.5957L89.1357 86.4531Z" fill="white"/>
<g clip-path="url(#clip0_199_222)">
<path fill-rule="evenodd" clip-rule="evenodd" d="M60.2077 7.0835C63.0256 7.0835 65.7281 8.20291 67.7207 10.1955C69.7133 12.1881 70.8327 14.8906 70.8327 17.7085V24.7918C70.8327 27.6098 69.7133 30.3123 67.7207 32.3048C65.7281 34.2974 63.0256 35.4168 60.2077 35.4168C57.3898 35.4168 54.6872 34.2974 52.6947 32.3048C50.7021 30.3123 49.5827 27.6098 49.5827 24.7918H46.041V60.2085H49.5827C49.5827 57.3906 50.7021 54.6881 52.6947 52.6955C54.6872 50.7029 57.3898 49.5835 60.2077 49.5835C63.0256 49.5835 65.7281 50.7029 67.7207 52.6955C69.7133 54.6881 70.8327 57.3906 70.8327 60.2085V67.2918C70.8327 70.1098 69.7133 72.8123 67.7207 74.8048C65.7281 76.7974 63.0256 77.9168 60.2077 77.9168C57.3898 77.9168 54.6872 76.7974 52.6947 74.8048C50.7021 72.8123 49.5827 70.1098 49.5827 67.2918H35.416C35.416 68.6871 35.1412 70.0688 34.6072 71.3578C34.0733 72.6469 33.2906 73.8182 32.304 74.8048C31.3174 75.7915 30.1461 76.5741 28.857 77.108C27.5679 77.642 26.1863 77.9168 24.791 77.9168C23.3957 77.9168 22.0141 77.642 20.725 77.108C19.4359 76.5741 18.2646 75.7915 17.278 74.8048C16.2914 73.8182 15.5088 72.6469 14.9748 71.3578C14.4408 70.0688 14.166 68.6871 14.166 67.2918V60.2085C14.166 58.8132 14.4408 57.4316 14.9748 56.1425C15.5088 54.8534 16.2914 53.6821 17.278 52.6955C18.2646 51.7089 19.4359 50.9262 20.725 50.3923C22.0141 49.8583 23.3957 49.5835 24.791 49.5835C26.1863 49.5835 27.5679 49.8583 28.857 50.3923C30.1461 50.9262 31.3174 51.7089 32.304 52.6955C33.2906 53.6821 34.0733 54.8534 34.6072 56.1425C35.1412 57.4316 35.416 58.8132 35.416 60.2085H38.9577V24.7918H35.416C35.416 27.6098 34.2966 30.3123 32.304 32.3048C30.3115 34.2974 27.6089 35.4168 24.791 35.4168C21.9731 35.4168 19.2706 34.2974 17.278 32.3048C15.2854 30.3123 14.166 27.6098 14.166 24.7918V17.7085C14.166 14.8906 15.2854 12.1881 17.278 10.1955C19.2706 8.20291 21.9731 7.0835 24.791 7.0835C27.6089 7.0835 30.3115 8.20291 32.304 10.1955C34.2966 12.1881 35.416 14.8906 35.416 17.7085H49.5827C49.5827 14.8906 50.7021 12.1881 52.6947 10.1955C54.6872 8.20291 57.3898 7.0835 60.2077 7.0835ZM60.2077 56.6668C59.3402 56.6669 58.5029 56.9854 57.8547 57.5619C57.2065 58.1383 56.7923 58.9326 56.6908 59.7941L56.666 60.2085V67.2918C56.667 68.1945 57.0127 69.0628 57.6324 69.7192C58.252 70.3756 59.099 70.7706 60.0001 70.8235C60.9013 70.8764 61.7886 70.5832 62.4808 70.0038C63.1731 69.4244 63.6179 68.6026 63.7246 67.7062L63.7494 67.2918V60.2085C63.7494 59.2692 63.3762 58.3683 62.712 57.7042C62.0478 57.04 61.147 56.6668 60.2077 56.6668ZM24.791 56.6668C23.9235 56.6669 23.0863 56.9854 22.438 57.5619C21.7898 58.1383 21.3756 58.9326 21.2741 59.7941L21.2493 60.2085V67.2918C21.2504 68.1945 21.596 69.0628 22.2157 69.7192C22.8354 70.3756 23.6823 70.7706 24.5835 70.8235C25.4846 70.8764 26.3719 70.5832 27.0642 70.0038C27.7564 69.4244 28.2013 68.6026 28.3079 67.7062L28.3327 67.2918V60.2085C28.3327 59.2692 27.9595 58.3683 27.2954 57.7042C26.6312 57.04 25.7303 56.6668 24.791 56.6668ZM24.791 14.1668C23.8517 14.1668 22.9509 14.54 22.2867 15.2042C21.6225 15.8684 21.2493 16.7692 21.2493 17.7085V24.7918C21.2493 25.7311 21.6225 26.632 22.2867 27.2962C22.9509 27.9604 23.8517 28.3335 24.791 28.3335C25.7303 28.3335 26.6312 27.9604 27.2954 27.2962C27.9595 26.632 28.3327 25.7311 28.3327 24.7918V17.7085C28.3327 16.7692 27.9595 15.8684 27.2954 15.2042C26.6312 14.54 25.7303 14.1668 24.791 14.1668ZM60.2077 14.1668C59.2684 14.1668 58.3675 14.54 57.7033 15.2042C57.0392 15.8684 56.666 16.7692 56.666 17.7085V24.7918C56.666 25.7311 57.0392 26.632 57.7033 27.2962C58.3675 27.9604 59.2684 28.3335 60.2077 28.3335C61.147 28.3335 62.0478 27.9604 62.712 27.2962C63.3762 26.632 63.7494 25.7311 63.7494 24.7918V17.7085C63.7494 16.7692 63.3762 15.8684 62.712 15.2042C62.0478 14.54 61.147 14.1668 60.2077 14.1668Z" fill="#1E54BC"/>
</g>
<defs>
<clipPath id="clip0_199_222">
<rect width="85" height="85" fill="white"/>
</clipPath>
</defs>
</svg>