<svg xmlns="http://www.w3.org/2000/svg" width="104" height="91" viewBox="0 0 104 91" fill="none">
<circle cx="85.5" cy="72.5" r="16.5" fill="#1E54BC" stroke="white" stroke-width="4"/>
<path d="M85.0693 80.2686C83.9521 80.2686 82.9137 80.0573 81.9541 79.6348C80.9945 79.2122 80.1924 78.6143 79.5479 77.8408L81.3311 75.7354C82.3122 76.874 83.4795 77.4434 84.833 77.4434C85.6852 77.4434 86.3512 77.2249 86.8311 76.7881C87.318 76.3512 87.5615 75.7568 87.5615 75.0049C87.5615 74.2601 87.2858 73.6693 86.7344 73.2324C86.1901 72.7884 85.4596 72.5664 84.543 72.5664C83.6406 72.5664 82.724 72.7419 81.793 73.0928L80.4287 72.1689L80.998 64.5957H89.9141V67.3672H83.6406L83.4043 70.3428C84.0417 70.1494 84.722 70.0527 85.4453 70.0527C86.9707 70.0527 88.224 70.5218 89.2051 71.46C90.1862 72.391 90.6768 73.6012 90.6768 75.0908C90.6768 76.6592 90.1647 77.916 89.1406 78.8613C88.1237 79.7995 86.7666 80.2686 85.0693 80.2686Z" fill="white"/>
<path fill-rule="evenodd" clip-rule="evenodd" d="M32.5 0C50.4497 0 65 14.5503 65 32.5C65 50.4497 50.4497 65 32.5 65C14.5503 65 0 50.4497 0 32.5C0 14.5503 14.5503 0 32.5 0ZM20.5173 41.5382C17.1242 38.8245 12.5223 37.7747 7.16625 38.3792C8.30305 43.2626 10.8259 47.7137 14.4316 51.1977C18.0372 54.6818 22.5723 57.0504 27.4917 58.019C26.8645 49.4877 24.0597 44.3657 20.5173 41.5382ZM44.4827 41.5382C40.9403 44.3722 38.1355 49.4878 37.5083 58.0158C42.4267 57.0468 46.9608 54.6784 50.5658 51.195C54.1708 47.7117 56.6934 43.2615 57.8305 38.3792C52.4778 37.7747 47.8758 38.8245 44.4827 41.5382ZM32.5 26C29.4125 26 26.871 27.2025 25.0055 28.5285L23.387 29.6562C21.684 30.81 19.7275 31.9963 17.5338 32.7762C20.0954 33.5432 22.4861 34.7943 24.5765 36.4618C28.2295 39.3867 30.9237 43.5695 32.5 49.0035C34.0762 43.5695 36.7705 39.3835 40.4235 36.4618C42.5141 34.7954 44.9049 33.5454 47.4662 32.7795C45.2725 31.9963 43.316 30.81 41.613 29.6562L39.9945 28.5285C38.129 27.2025 35.5875 26 32.5 26ZM32.5 6.5C26.4426 6.50081 20.5754 8.61582 15.9107 12.4801C11.2459 16.3445 8.07627 21.7157 6.9485 27.6672L6.80875 28.4732L13.9912 27.0368C15.8827 26.6597 17.68 25.662 19.6885 24.3068L21.2388 23.2278C23.829 21.3883 27.6672 19.5 32.5 19.5C37.011 19.5 40.6543 21.1445 43.225 22.8605L45.3115 24.3068C47.0665 25.493 48.6655 26.403 50.3035 26.8678L51.0088 27.0368L58.1913 28.4732C57.23 22.35 54.1134 16.7714 49.403 12.7427C44.6926 8.71403 38.6982 6.50014 32.5 6.5Z" fill="#1E54BC"/>
</svg>