<svg xmlns="http://www.w3.org/2000/svg" width="111" height="100" viewBox="0 0 111 100" fill="none">
<path d="M26.5137 58.1503C27.2437 57.4112 28.23 56.9812 29.2683 56.9495C30.3066 56.9177 31.3173 57.2866 32.0911 57.9796C32.8649 58.6727 33.3424 59.6369 33.4247 60.6724C33.507 61.7079 33.1879 62.7354 32.5333 63.542L32.2388 63.8722L24.8017 71.3093C23.952 72.1596 22.817 72.6644 21.6165 72.726C20.416 72.7875 19.2354 72.4015 18.3031 71.6426L17.9342 71.3093L13.9308 67.3027C13.199 66.5711 12.7753 65.587 12.7469 64.5526C12.7186 63.5182 13.0876 62.5123 13.7782 61.7417C14.4688 60.9712 15.4284 60.4945 16.4597 60.4098C17.4909 60.3251 18.5155 60.6387 19.3226 61.2863L19.6527 61.5808L21.3679 63.2961L26.5137 58.1503ZM68.3921 60.2992C69.6796 60.2992 70.9144 60.8107 71.8248 61.7211C72.7352 62.6315 73.2466 63.8662 73.2466 65.1538C73.2466 66.4412 72.7352 67.676 71.8248 68.5864C70.9144 69.4968 69.6796 70.0083 68.3921 70.0083H42.5013C41.2138 70.0083 39.979 69.4968 39.0686 68.5864C38.1582 67.676 37.6468 66.4412 37.6468 65.1538C37.6468 63.8662 38.1582 62.6315 39.0686 61.7211C39.979 60.8107 41.2138 60.2992 42.5013 60.2992H68.3921ZM32.2421 35.4958C32.6178 35.8715 32.9159 36.3175 33.1193 36.8084C33.3227 37.2993 33.4273 37.8254 33.4273 38.3568C33.4273 38.8881 33.3227 39.4142 33.1193 39.9051C32.9159 40.396 32.6178 40.842 32.2421 41.2177L24.7985 48.6548C24.3476 49.1059 23.8123 49.4638 23.2232 49.708C22.634 49.9521 22.0025 50.0778 21.3647 50.0778C20.7269 50.0778 20.0954 49.9521 19.5062 49.708C18.917 49.4638 18.3818 49.1059 17.9309 48.6548L13.9276 44.6482C13.1688 43.8895 12.7425 42.8604 12.7425 41.7873C12.7425 40.7142 13.1688 39.6851 13.9276 38.9264C14.6863 38.1676 15.7154 37.7413 16.7885 37.7413C17.8616 37.7413 18.8907 38.1676 19.6494 38.9264L21.3647 40.6416L26.5105 35.4958C26.8862 35.1196 27.3324 34.8211 27.8236 34.6174C28.3148 34.4138 28.8413 34.309 29.373 34.309C29.9048 34.309 30.4313 34.4138 30.9225 34.6174C31.4137 34.8211 31.8599 35.1196 32.2356 35.4958H32.2421ZM68.3921 37.6448C69.6391 37.6446 70.8383 38.1242 71.7412 38.9843C72.6441 39.8443 73.1814 41.0189 73.2418 42.2644C73.3021 43.5099 72.8809 44.7309 72.0653 45.6742C71.2498 46.6175 70.1025 47.2108 68.8614 47.3312L68.3921 47.3538H42.5013C41.2546 47.3532 40.0559 46.873 39.1537 46.0126C38.2514 45.1523 37.7147 43.9778 37.6548 42.7326C37.5949 41.4873 38.0163 40.2668 38.8318 39.3238C39.6474 38.3808 40.7944 37.7877 42.0353 37.6674L42.5013 37.6448H68.3921ZM26.5137 12.8414C27.2437 12.1023 28.23 11.6723 29.2683 11.6406C30.3066 11.6088 31.3173 11.9777 32.0911 12.6707C32.8649 13.3638 33.3424 14.328 33.4247 15.3635C33.507 16.399 33.1879 17.4265 32.5333 18.2331L32.2388 18.56L24.7985 26.0004C23.9488 26.8507 22.8138 27.3555 21.6133 27.4171C20.4128 27.4786 19.2321 27.0926 18.2999 26.3337L17.9309 26.0004L13.9276 21.9938C13.1958 21.2622 12.7721 20.2781 12.7437 19.2437C12.7153 18.2093 13.0844 17.2034 13.775 16.4328C14.4655 15.6623 15.4252 15.1856 16.4564 15.1009C17.4877 15.0162 18.5122 15.3298 19.3193 15.9774L19.6494 16.2719L21.3647 17.9872L26.5137 12.8414ZM68.3921 14.9903C69.6391 14.9901 70.8383 15.4697 71.7412 16.3298C72.6441 17.1899 73.1814 18.3644 73.2418 19.6099C73.3021 20.8554 72.8809 22.0764 72.0653 23.0197C71.2498 23.9631 70.1025 24.5564 68.8614 24.6767L68.3921 24.6994H42.5013C41.2546 24.6987 40.0559 24.2185 39.1537 23.3582C38.2514 22.4979 37.7147 21.3234 37.6548 20.0781C37.5949 18.8329 38.0163 17.6123 38.8318 16.6693C39.6474 15.7264 40.7944 15.1333 42.0353 15.013L42.5013 14.9903H68.3921Z" fill="#1E54BC"/>
<circle cx="92.5" cy="81.0879" r="16.5" fill="#1E54BC" stroke="white" stroke-width="4"/>
<path d="M92.9619 89.2686C91.8734 89.2686 90.86 89.0573 89.9219 88.6348C88.9837 88.2122 88.1924 87.6143 87.5479 86.8408L89.3311 84.7354C89.7965 85.2796 90.3301 85.695 90.9316 85.9814C91.5404 86.2607 92.1742 86.4004 92.833 86.4004C93.6351 86.4004 94.2796 86.1927 94.7666 85.7773C95.2536 85.3548 95.4971 84.7998 95.4971 84.1123C95.4971 83.654 95.3825 83.2637 95.1533 82.9414C94.9242 82.6191 94.6162 82.3864 94.2295 82.2432C93.8428 82.0928 93.3952 81.9997 92.8867 81.9639C92.3783 81.9209 91.8447 81.9567 91.2861 82.0713L90.4805 80.3955L94.1543 76.3242L88.3428 76.3457V73.5957H97.9355V75.8838L94.4121 79.7188C95.6439 79.862 96.6501 80.3597 97.4307 81.2119C98.2184 82.057 98.6123 83.099 98.6123 84.3379C98.6123 85.806 98.0931 86.9948 97.0547 87.9043C96.0163 88.8138 94.652 89.2686 92.9619 89.2686Z" fill="white"/>
</svg>