<svg xmlns="http://www.w3.org/2000/svg" width="54" height="32" viewBox="0 0 54 32" fill="none">
<path d="M0.143897 31.9973C3.52013 30.9232 12.4944 28.2161 22.7369 29.4743C29.9846 30.3643 39.3872 28.4872 43.9413 27.7376C44.0517 27.7209 44.0283 27.557 43.9179 27.567C41.2108 27.818 36.7806 28.1894 33.3173 28.1224C39.6147 17.6826 53.7387 13.704 53.7387 13.704C53.7387 13.704 48.4552 9.70206 37.4665 9.58829L37.3795 9.41764C37.3494 9.35406 37.3059 9.2771 37.2591 9.18675V9.18006H37.2557C36.9947 8.68484 36.5162 7.82154 36.0009 7.13224C34.6826 5.35545 33.836 4.64941 33.836 4.64941C33.836 4.64941 26.6318 5.1346 20.7593 8.5878C13.4247 12.9009 11.0288 15.8087 8.90739 18.8972L8.53597 19.4225C3.93171 23.0531 1.44219 26.3189 1.44219 26.3189L1.79019 27.2859C1.79019 27.2859 9.05796 17.9335 22.5796 12.9879C32.7385 9.27375 42.6363 10.8397 46.8658 12.5697C34.2978 20.4498 32.0927 27.1052 31.8317 28.0589C29.8474 27.925 28.4186 27.5837 28.2346 26.8844C27.6089 24.4752 31.0085 22.8456 30.0984 22.8456C29.5329 22.8456 27.3278 23.3342 24.9152 25.0708C22.5361 26.784 19.4276 28.186 18.8387 27.8079C18.2464 27.4298 19.0997 26.7807 21.0505 25.4824C21.1442 25.4221 21.0906 25.2782 20.9802 25.2916C19.0762 25.4991 16.4629 27.7577 15.6866 27.7109C15.0776 27.6741 15.0408 27.1387 15.0642 26.8576C15.0709 26.7907 15.0007 26.7472 14.9438 26.7807C14.4954 27.0617 13.0633 27.8681 11.4371 27.8681C9.81084 27.8681 9.60338 27.1153 9.56323 26.8108C9.55653 26.7505 9.48961 26.7204 9.43607 26.7505L0.060244 31.7898C-0.0602163 31.8534 0.0167445 32.0374 0.143897 31.9939V31.9973Z" fill="#fff"/>
<path d="M17.4561 9.58089C24.1618 4.62529 32.6609 3.63149 32.6609 3.63149C32.6609 3.63149 31.9013 2.96896 30.5261 2.19935C29.0705 1.38624 28.1336 1.06836 28.1336 1.06836C28.1336 1.06836 21.4514 3.20318 15.144 9.29312C9.77678 14.4763 8.87333 16.6512 8.43164 17.2602L8.49522 18.0901C9.34178 16.9892 10.6702 14.5934 17.4528 9.57754L17.4561 9.58089Z" fill="#fff"/>
<path d="M16.9251 6.19501C20.3014 3.17681 26.4783 0.556802 26.4783 0.556802C26.4783 0.556802 25.257 0.232229 23.9352 0.0950377C22.5968 -0.0454994 21.6164 0.0113847 21.6164 0.0113847C21.6164 0.0113847 14.5059 4.3078 9.26251 13.2419C9.21901 13.8208 9.18555 14.7142 9.18555 14.7142C9.18555 14.7142 11.9996 10.6052 16.9285 6.19501H16.9251Z" fill="#fff"/>
</svg>