<svg xmlns="http://www.w3.org/2000/svg" width="111" height="97" viewBox="0 0 111 97" fill="none">
<circle cx="92.5" cy="78.0195" r="16.5" fill="#1E54BC" stroke="white" stroke-width="4"/>
<path d="M92.4473 84.9316V73.6201C91.3802 74.0498 90.1162 74.2646 88.6553 74.2646V71.708C89.6507 71.708 90.485 71.5326 91.1582 71.1816C91.8314 70.8307 92.4437 70.2793 92.9951 69.5273H95.5732V84.9316H92.4473Z" fill="white"/>
<g clip-path="url(#clip0_199_201)">
<path fill-rule="evenodd" clip-rule="evenodd" d="M38.875 14.1668C37.4797 14.1668 36.0981 14.4417 34.809 14.9756C33.5199 15.5096 32.3486 16.2922 31.362 17.2788C30.3754 18.2654 29.5927 19.4367 29.0588 20.7258C28.5248 22.0149 28.25 23.3965 28.25 24.7918C28.25 26.1871 28.5248 27.5688 29.0588 28.8578C29.5927 30.1469 30.3754 31.3182 31.362 32.3048C32.3486 33.2915 33.5199 34.0741 34.809 34.6081C36.0981 35.142 37.4797 35.4168 38.875 35.4168C41.6929 35.4168 44.3954 34.2974 46.388 32.3048C48.3806 30.3123 49.5 27.6098 49.5 24.7918C49.5 21.9739 48.3806 19.2714 46.388 17.2788C44.3954 15.2862 41.6929 14.1668 38.875 14.1668ZM21.1667 24.7918C21.1667 20.0953 23.0324 15.5911 26.3533 12.2701C29.6743 8.94919 34.1785 7.0835 38.875 7.0835C43.5715 7.0835 48.0757 8.94919 51.3967 12.2701C54.7176 15.5911 56.5833 20.0953 56.5833 24.7918C56.5833 29.4884 54.7176 33.9926 51.3967 37.3135C48.0757 40.6345 43.5715 42.5002 38.875 42.5002C34.1785 42.5002 29.6743 40.6345 26.3533 37.3135C23.0324 33.9926 21.1667 29.4884 21.1667 24.7918ZM15.546 62.337C14.4021 63.7891 14.0833 64.887 14.0833 65.521C14.0833 65.9531 14.2144 66.41 14.9865 67.0298C15.8683 67.7381 17.4019 68.4712 19.7465 69.091C24.4144 70.3306 31.1223 70.8335 38.875 70.8335C39.6613 70.8335 40.4369 70.8264 41.2054 70.8158C42.1447 70.8031 43.0506 71.1641 43.7238 71.8193C44.3969 72.4745 44.7822 73.3703 44.7949 74.3096C44.8076 75.249 44.4466 76.1548 43.7914 76.828C43.1362 77.5011 42.2404 77.8864 41.301 77.8991C40.5006 77.9098 39.6896 77.9168 38.875 77.9168C30.9806 77.9168 23.5219 77.421 17.9331 75.9406C15.1529 75.2039 12.5356 74.1485 10.5523 72.5547C8.45208 70.8689 7 68.5137 7 65.521C7 62.7337 8.26792 60.127 9.98917 57.9454C11.7388 55.7318 14.1577 53.6954 16.9946 51.96C22.6719 48.5033 30.3927 46.0418 38.875 46.0418C40.4581 46.0418 42.0165 46.1268 43.5358 46.2897C44.47 46.3888 45.3265 46.855 45.917 47.5856C46.5074 48.3162 46.7835 49.2514 46.6844 50.1856C46.5853 51.1197 46.1192 51.9762 45.3885 52.5667C44.6579 53.1572 43.7227 53.4332 42.7885 53.3341C41.5135 53.196 40.2031 53.1252 38.875 53.1252C31.7102 53.1252 25.2644 55.2147 20.685 58.0091C18.3935 59.4045 16.6617 60.9204 15.546 62.337ZM76.7992 56.9077C77.4443 56.2397 77.8013 55.3451 77.7932 54.4165C77.7852 53.4878 77.4127 52.5995 76.756 51.9429C76.0994 51.2862 75.2111 50.9138 74.2825 50.9057C73.3538 50.8976 72.4592 51.2546 71.7913 51.8997L60.5217 63.1693L55.5138 58.1614C54.8458 57.5163 53.9511 57.1593 53.0225 57.1674C52.0939 57.1754 51.2056 57.5479 50.549 58.2046C49.8923 58.8612 49.5199 59.7495 49.5118 60.6781C49.5037 61.6067 49.8607 62.5014 50.5058 63.1693L57.7663 70.4297C58.128 70.7917 58.5576 71.0788 59.0304 71.2747C59.5032 71.4706 60.0099 71.5715 60.5217 71.5715C61.0334 71.5715 61.5402 71.4706 62.013 71.2747C62.4857 71.0788 62.9153 70.7917 63.2771 70.4297L76.7992 56.9077Z" fill="#1E54BC"/>
</g>
<defs>
<clipPath id="clip0_199_201">
<rect width="85" height="85" fill="white"/>
</clipPath>
</defs>
</svg>