<svg xmlns="http://www.w3.org/2000/svg" width="104" height="88" viewBox="0 0 104 88" fill="none">
<circle cx="85.5" cy="69.5" r="16.5" fill="#1E54BC" stroke="white" stroke-width="4"/>
<path d="M85.9619 77.2686C84.8734 77.2686 83.86 77.0573 82.9219 76.6348C81.9837 76.2122 81.1924 75.6143 80.5479 74.8408L82.3311 72.7354C82.7965 73.2796 83.3301 73.695 83.9316 73.9814C84.5404 74.2607 85.1742 74.4004 85.833 74.4004C86.6351 74.4004 87.2796 74.1927 87.7666 73.7773C88.2536 73.3548 88.4971 72.7998 88.4971 72.1123C88.4971 71.654 88.3825 71.2637 88.1533 70.9414C87.9242 70.6191 87.6162 70.3864 87.2295 70.2432C86.8428 70.0928 86.3952 69.9997 85.8867 69.9639C85.3783 69.9209 84.8447 69.9567 84.2861 70.0713L83.4805 68.3955L87.1543 64.3242L81.3428 64.3457V61.5957H90.9355V63.8838L87.4121 67.7188C88.6439 67.862 89.6501 68.3597 90.4307 69.2119C91.2184 70.057 91.6123 71.099 91.6123 72.3379C91.6123 73.806 91.0931 74.9948 90.0547 75.9043C89.0163 76.8138 87.652 77.2686 85.9619 77.2686Z" fill="white"/>
<path d="M45.4208 0C47.259 6.23511e-05 49.0609 0.51103 50.6246 1.47566C52.1883 2.4403 53.452 3.82049 54.2743 5.46165L58.838 14.5699C59.6431 14.2405 60.445 13.9078 61.2238 13.5224C62.007 13.1318 62.9136 13.0679 63.7441 13.3447C64.5746 13.6214 65.2609 14.2162 65.6521 14.9981C66.0433 15.78 66.1074 16.6851 65.8301 17.5141C65.5529 18.3432 64.9571 19.0283 64.1738 19.4188C62.5437 20.2292 61.7979 20.4795 61.7979 20.4795L64.9526 26.7812C65.6422 28.1548 65.9986 29.6668 65.9986 31.2019V39.5294C65.9986 42.4579 64.7249 45.0866 62.6988 46.8951V51.0588C62.6988 52.3693 62.1773 53.6261 61.249 54.5528C60.3208 55.4794 59.0618 56 57.749 56C56.4363 56 55.1773 55.4794 54.249 54.5528C53.3208 53.6261 52.7993 52.3693 52.7993 51.0588V49.4118H13.2012V51.0588C13.2012 52.3693 12.6797 53.6261 11.7515 54.5528C10.8232 55.4794 9.56421 56 8.25145 56C6.93869 56 5.6797 55.4794 4.75144 54.5528C3.82318 53.6261 3.30169 52.3693 3.30169 51.0588V46.8951C1.27559 45.0833 0.00185236 42.4546 0.00185236 39.5294V31.2019C0.00246903 29.6683 0.360598 28.156 1.0479 26.7845L4.20255 20.4795C3.40399 20.1468 2.61202 19.7976 1.83326 19.4221C1.44431 19.2295 1.09726 18.9621 0.81201 18.6353C0.526761 18.3085 0.308919 17.9288 0.170971 17.5178C0.0330234 17.1068 -0.0223184 16.6727 0.0081172 16.2403C0.0385528 15.8079 0.154168 15.3858 0.348335 14.9981C0.748177 14.2203 1.43839 13.6306 2.27 13.3563C3.1016 13.082 4.00788 13.1452 4.79322 13.5322C5.56868 13.9078 6.36394 14.2471 7.1625 14.5699L11.7262 5.46165C12.5485 3.82049 13.8122 2.4403 15.3759 1.47566C16.9396 0.51103 18.7415 6.23511e-05 20.5796 0H45.4208ZM55.5513 22.7426C49.9416 24.5115 41.9593 26.3529 33.0002 26.3529C24.0412 26.3529 16.0589 24.5082 10.4491 22.7426L6.95131 29.7261C6.72133 30.1842 6.60156 30.6895 6.60153 31.2019V39.5294C6.60153 40.4031 6.94919 41.2409 7.56803 41.8587C8.18687 42.4765 9.0262 42.8235 9.90137 42.8235H56.0991C56.9743 42.8235 57.8136 42.4765 58.4324 41.8587C59.0513 41.2409 59.3989 40.4031 59.3989 39.5294V31.2019C59.3984 30.6906 59.2786 30.1865 59.0492 29.7294L55.5513 22.7426ZM18.151 29.6471C19.4637 29.6471 20.7227 30.1676 21.651 31.0943C22.5792 32.0209 23.1007 33.2778 23.1007 34.5882C23.1007 35.8987 22.5792 37.1555 21.651 38.0822C20.7227 39.0088 19.4637 39.5294 18.151 39.5294C16.8382 39.5294 15.5792 39.0088 14.651 38.0822C13.7227 37.1555 13.2012 35.8987 13.2012 34.5882C13.2012 33.2778 13.7227 32.0209 14.651 31.0943C15.5792 30.1676 16.8382 29.6471 18.151 29.6471ZM47.8495 29.6471C49.1623 29.6471 50.4213 30.1676 51.3495 31.0943C52.2778 32.0209 52.7993 33.2778 52.7993 34.5882C52.7993 35.8987 52.2778 37.1555 51.3495 38.0822C50.4213 39.0088 49.1623 39.5294 47.8495 39.5294C46.5368 39.5294 45.2778 39.0088 44.3495 38.0822C43.4212 37.1555 42.8998 35.8987 42.8998 34.5882C42.8998 33.2778 43.4212 32.0209 44.3495 31.0943C45.2778 30.1676 46.5368 29.6471 47.8495 29.6471ZM45.4208 6.58824H20.5796C19.967 6.58856 19.3665 6.75914 18.8455 7.08088C18.3245 7.40261 17.9034 7.86279 17.6296 8.40988L13.4388 16.7671C18.5469 18.2988 25.4304 19.7647 33.0002 19.7647C40.5701 19.7647 47.4535 18.2988 52.5584 16.7671L48.3709 8.40988C48.097 7.86279 47.676 7.40261 47.155 7.08088C46.634 6.75914 46.0335 6.58856 45.4208 6.58824Z" fill="#1E54BC"/>
</svg>