<svg xmlns="http://www.w3.org/2000/svg" width="111" height="104" viewBox="0 0 111 104" fill="none">
<circle cx="92.5" cy="85.0195" r="16.5" fill="#1E54BC" stroke="white" stroke-width="4"/>
<path d="M92.0693 93.2002C90.9521 93.2002 89.9137 92.9889 88.9541 92.5664C87.9945 92.1439 87.1924 91.5459 86.5479 90.7725L88.3311 88.667C89.3122 89.8057 90.4795 90.375 91.833 90.375C92.6852 90.375 93.3512 90.1566 93.8311 89.7197C94.318 89.2829 94.5615 88.6885 94.5615 87.9365C94.5615 87.1917 94.2858 86.6009 93.7344 86.1641C93.1901 85.7201 92.4596 85.498 91.543 85.498C90.6406 85.498 89.724 85.6735 88.793 86.0244L87.4287 85.1006L87.998 77.5273H96.9141V80.2988H90.6406L90.4043 83.2744C91.0417 83.0811 91.722 82.9844 92.4453 82.9844C93.9707 82.9844 95.224 83.4535 96.2051 84.3916C97.1862 85.3226 97.6768 86.5329 97.6768 88.0225C97.6768 89.5908 97.1647 90.8477 96.1406 91.793C95.1237 92.7311 93.7666 93.2002 92.0693 93.2002Z" fill="white"/>
<g clip-path="url(#clip0_199_229)">
<path d="M70.834 7.0835C72.7126 7.0835 74.5143 7.82977 75.8427 9.15816C77.171 10.4865 77.9173 12.2882 77.9173 14.1668V56.6668C77.9173 58.5454 77.171 60.3471 75.8427 61.6755C74.5143 63.0039 72.7126 63.7502 70.834 63.7502H60.209V70.8335C60.209 72.7121 59.4627 74.5138 58.1343 75.8422C56.8059 77.1705 55.0043 77.9168 53.1256 77.9168H14.1673C12.2887 77.9168 10.487 77.1705 9.15864 75.8422C7.83026 74.5138 7.08398 72.7121 7.08398 70.8335V31.8752C7.08398 29.9965 7.83026 28.1949 9.15864 26.8665C10.487 25.5381 12.2887 24.7918 14.1673 24.7918H21.2507V14.1668C21.2507 12.2882 21.9969 10.4865 23.3253 9.15816C24.6537 7.82977 26.4554 7.0835 28.334 7.0835H70.834ZM21.2507 31.8752H14.1673V70.8335H53.1256V63.7502H28.334C26.4554 63.7502 24.6537 63.0039 23.3253 61.6755C21.9969 60.3471 21.2507 58.5454 21.2507 56.6668V31.8752ZM70.834 14.1668H28.334V56.6668H70.834V14.1668ZM63.3611 25.617C64.025 26.2812 64.398 27.1819 64.398 28.121C64.398 29.0601 64.025 29.9608 63.3611 30.625L48.5817 45.4008C48.2199 45.7627 47.7904 46.0499 47.3176 46.2458C46.8448 46.4417 46.338 46.5425 45.8263 46.5425C45.3145 46.5425 44.8078 46.4417 44.335 46.2458C43.8622 46.0499 43.4326 45.7627 43.0709 45.4008L35.8104 38.1404C35.1459 37.4763 34.7723 36.5754 34.772 35.6359C34.7717 34.6964 35.1446 33.7952 35.8087 33.1307C36.4728 32.4661 37.3736 32.0926 38.3131 32.0923C39.2526 32.0919 40.1538 32.4648 40.8184 33.1289L45.8263 38.1368L58.3496 25.617C59.0138 24.9531 59.9144 24.5801 60.8536 24.5801C61.7927 24.5801 62.6969 24.9531 63.3611 25.617Z" fill="#1E54BC"/>
</g>
<defs>
<clipPath id="clip0_199_229">
<rect width="85" height="85" fill="white"/>
</clipPath>
</defs>
</svg>