<svg xmlns="http://www.w3.org/2000/svg" width="104" height="92" viewBox="0 0 104 92" fill="none">
<circle cx="85.5" cy="73.5" r="16.5" fill="#1E54BC" stroke="white" stroke-width="4"/>
<path d="M80.9238 81V78.6045L86.4668 73.5234C87.849 72.2487 88.54 71.1172 88.54 70.1289C88.54 69.5775 88.3359 69.1263 87.9277 68.7754C87.5267 68.4173 86.9967 68.2383 86.3379 68.2383C85.1419 68.2383 84.057 68.9222 83.083 70.29L80.9453 68.3672C81.6901 67.3145 82.5065 66.5482 83.3945 66.0684C84.2826 65.5814 85.3066 65.3379 86.4668 65.3379C88.0208 65.3379 89.2777 65.764 90.2373 66.6162C91.1969 67.4613 91.6768 68.5749 91.6768 69.957C91.6768 71.0098 91.4225 71.9766 90.9141 72.8574C90.4128 73.7383 89.582 74.6764 88.4219 75.6719L85.543 78.1855L88.2715 78.1426H92.0957V81H80.9238Z" fill="white"/>
<path fill-rule="evenodd" clip-rule="evenodd" d="M42.2548 0C44.1892 0.000413453 46.0442 0.76979 47.4118 2.1389L59.8628 14.6C61.2308 15.9687 61.9996 17.8252 62 19.7611V51.1C62 53.0361 61.2315 54.8929 59.8636 56.2619C58.4957 57.6309 56.6404 58.4 54.7059 58.4H47.4118V65.7C47.4118 67.6361 46.6433 69.4929 45.2754 70.8619C43.9075 72.2309 42.0522 73 40.1176 73H7.29412C5.3596 73 3.50431 72.2309 2.1364 70.8619C0.768485 69.4929 0 67.6361 0 65.7V21.9C0 19.9639 0.768485 18.1071 2.1364 16.7381C3.50431 15.3691 5.3596 14.6 7.29412 14.6H14.5882V7.3C14.5882 5.36392 15.3567 3.50714 16.7246 2.13812C18.0925 0.769105 19.9478 0 21.8824 0H42.2548ZM14.5882 21.9H7.29412V65.7H40.1176V58.4H21.8824C19.9478 58.4 18.0925 57.6309 16.7246 56.2619C15.3567 54.8929 14.5882 53.0361 14.5882 51.1V21.9ZM36.4706 7.3H21.8824V51.1H54.7059V25.55H41.9412C40.5812 25.5499 39.2701 25.0429 38.2634 24.1279C37.2567 23.2128 36.6267 21.9553 36.4961 20.6006L36.4706 20.075V7.3Z" fill="#1E54BC"/>
</svg>