<svg width="104" height="91" viewBox="0 0 104 91" fill="none" xmlns="http://www.w3.org/2000/svg">
<circle cx="85.5" cy="72.0879" r="16.5" fill="#1E54BC" stroke="white" stroke-width="4"/>
<path d="M84.4473 79V67.6885C83.3802 68.1182 82.1162 68.333 80.6553 68.333V65.7764C81.6507 65.7764 82.485 65.6009 83.1582 65.25C83.8314 64.8991 84.4437 64.3477 84.9951 63.5957H87.5732V79H84.4473Z" fill="white"/>
<path fill-rule="evenodd" clip-rule="evenodd" d="M16.0016 0.895593C20.0502 3.84732 23.1147 7.99447 25.7241 11.8051L27.7692 14.8113C28.4043 15.7393 28.6949 16.8602 28.5907 17.9798C28.4865 19.0994 27.9941 20.1474 27.1986 20.9423L22.8519 25.2882L23.3103 26.2625C24.4322 28.5347 26.3684 31.807 29.2823 34.7234C31.5262 36.9669 33.9784 38.627 36.0268 39.7872L37.2032 40.4186L38.2514 40.9378L38.7195 41.1525L43.063 36.8066C43.8612 36.0096 44.9141 35.5181 46.0377 35.418C47.1614 35.3178 48.2846 35.6153 49.2113 36.2586L52.4617 38.5116C56.1545 41.1076 60.0108 44.0657 63.008 47.9052C63.5261 48.5715 63.8557 49.3648 63.9623 50.202C64.0689 51.0392 63.9485 51.8897 63.6139 52.6645C60.9308 58.9237 54.1414 64.2535 47.0796 63.9907L46.1179 63.9394L45.371 63.8753L44.544 63.7792L43.6432 63.6574L42.6655 63.4939L41.6205 63.2888L40.5114 63.042L39.3381 62.7408L38.104 62.3882L36.8153 61.9716C30.8979 59.9653 23.3872 56.0233 15.681 48.3187C7.97805 40.6173 4.0352 33.1082 2.02852 27.1919L1.6118 25.9035L1.25918 24.6696L0.95786 23.4966L0.707825 22.3877C0.635606 22.0404 0.568283 21.6921 0.505874 21.3429L0.345596 20.3654L0.217373 19.4648L0.124412 18.638L0.0603002 17.8912L0.00901144 16.9298C-0.25064 9.89178 5.13792 3.0557 11.3695 0.386013C12.1196 0.0622105 12.9409 -0.0610708 13.753 0.028266C14.565 0.117603 15.3399 0.416488 16.0016 0.895593ZM13.03 6.69007C9.59366 8.48482 6.26628 12.5871 6.41694 16.6926L6.48105 17.7438L6.55158 18.4008L6.64454 19.1379L6.77276 19.9488L6.93624 20.8365L7.14461 21.7916L7.40105 22.8172L7.70879 23.9036L8.07422 25.051C8.20885 25.442 8.3499 25.8426 8.50377 26.2528L8.99742 27.5092L9.5616 28.8136C11.5747 33.2428 14.8572 38.4283 20.2201 43.7869C25.5798 49.1455 30.7664 52.4306 35.1965 54.4432L36.5012 55.0073L37.7578 55.5009C38.1681 55.6547 38.5688 55.7957 38.9599 55.9303L40.1075 56.2957L41.1974 56.6034L42.2199 56.8597L43.1752 57.0681L44.0631 57.2315L44.8773 57.3597L45.6146 57.4559L46.2686 57.52L47.32 57.5841C51.3718 57.7347 55.507 54.4272 57.2957 51.0364C55.0134 48.3603 52.1796 46.165 49.0542 43.9536L46.6564 42.2838L46.0474 42.9216L44.7459 44.3414L44.0567 45.0657C42.1783 46.979 39.9856 48.6039 37.3571 47.5431L36.6326 47.2386L35.7479 46.8412L35.2542 46.6072L34.1707 46.0656L32.9815 45.4246C29.9719 43.7501 27.2037 41.6746 24.7528 39.2552C22.3328 36.8048 20.257 34.0372 18.5821 31.0282L17.941 29.8424L17.396 28.7559L16.7677 27.3778L16.46 26.6471C15.4631 24.1825 16.835 22.1025 18.5885 20.3013L19.3065 19.5962L21.092 17.9521L21.7331 17.3432L20.2169 15.1222C17.9634 11.8532 15.7612 8.90466 13.0268 6.68687L13.03 6.69007ZM60.9853 5.02672C61.5863 5.62773 61.9239 6.44277 61.9239 7.2926C61.9239 8.14242 61.5863 8.95746 60.9853 9.55847L47.9515 22.5896C47.5794 22.9618 47.1376 23.2569 46.6514 23.4583C46.1652 23.6597 45.6441 23.7634 45.1178 23.7634C44.5915 23.7634 44.0703 23.6597 43.5841 23.4583C43.0979 23.2569 42.6561 22.9618 42.284 22.5896L36.046 16.3593C35.4449 15.7579 35.1074 14.9425 35.1077 14.0923C35.108 13.2421 35.4461 12.4269 36.0476 11.8259C36.6491 11.225 37.4647 10.8876 38.3151 10.8879C39.1654 10.8882 39.9808 11.2262 40.5819 11.8275L45.1146 16.3593L56.4462 5.02672C56.744 4.72874 57.0975 4.49235 57.4866 4.33107C57.8758 4.16978 58.2929 4.08677 58.7142 4.08677C59.1354 4.08677 59.5526 4.16978 59.9417 4.33107C60.3309 4.49235 60.6876 4.72874 60.9853 5.02672Z" fill="#1E54BC"/>
</svg>
